<svg xmlns="http://www.w3.org/2000/svg" xmlns:svg="http://www.w3.org/2000/svg" xmlns:xlink="http://www.w3.org/1999/xlink" id="svg19655" width="48" height="48"><defs id="defs3"><linearGradient id="linearGradient3300"><stop style="stop-color:#4c4c28;stop-opacity:1" id="stop3302" offset="0"/><stop style="stop-color:#4c4c28;stop-opacity:0" id="stop3304" offset="1"/></linearGradient><linearGradient id="linearGradient3311"><stop id="stop3313" offset="0" style="stop-color:#d6d7a5;stop-opacity:1"/><stop id="stop3315" offset="1" style="stop-color:#8e8f6d;stop-opacity:1"/></linearGradient><linearGradient id="linearGradient3265"><stop id="stop3267" offset="0" style="stop-color:#929470;stop-opacity:1"/><stop style="stop-color:#60614a;stop-opacity:1" id="stop3269" offset=".265"/><stop id="stop3271" offset=".632" style="stop-color:#f3f5ba;stop-opacity:1"/><stop id="stop3273" offset="1" style="stop-color:#929470;stop-opacity:1"/></linearGradient><linearGradient id="linearGradient3175"><stop id="stop3177" offset="0" style="stop-color:#f1f3ff;stop-opacity:1"/><stop id="stop3179" offset="1" style="stop-color:#f1f3ff;stop-opacity:0"/></linearGradient><linearGradient id="linearGradient2399"><stop style="stop-color:#929470;stop-opacity:1" id="stop2401" offset="0"/><stop id="stop2407" offset=".265" style="stop-color:#fcffc1;stop-opacity:1"/><stop style="stop-color:#f3f5ba;stop-opacity:1" id="stop2409" offset=".632"/><stop style="stop-color:#929470;stop-opacity:1" id="stop2403" offset="1"/></linearGradient><linearGradient id="linearGradient6339"><stop style="stop-color:#fff;stop-opacity:1" id="stop6341" offset="0"/><stop style="stop-color:#fff;stop-opacity:0" id="stop6343" offset="1"/></linearGradient><linearGradient id="linearGradient20428"><stop id="stop20430" offset="0" style="stop-color:#a3a3a3;stop-opacity:1"/><stop id="stop20432" offset="1" style="stop-color:#b5b5b5;stop-opacity:0"/></linearGradient><linearGradient id="linearGradient20393"><stop id="stop20395" offset="0" style="stop-color:#fff;stop-opacity:1"/><stop style="stop-color:#fff;stop-opacity:.44117647" id="stop2427" offset=".412"/><stop id="stop20397" offset="1" style="stop-color:#000;stop-opacity:.48039216"/></linearGradient><linearGradient id="linearGradient20210"><stop id="stop20212" offset="0" style="stop-color:#000;stop-opacity:.51546389"/><stop style="stop-color:#000;stop-opacity:.14432989" id="stop20218" offset=".552"/><stop id="stop20214" offset="1" style="stop-color:#000;stop-opacity:0"/></linearGradient><radialGradient id="aigrd7" cx="17.834" cy="11.487" r="22.709" fx="17.834" fy="11.487" gradientUnits="userSpaceOnUse"><stop id="stop19512" offset="0" style="stop-color:#fff;stop-opacity:.17525773"/><stop id="stop19514" offset=".882" style="stop-color:#709ac8;stop-opacity:1"/><stop id="stop19516" offset="1" style="stop-color:#6f96dd;stop-opacity:1"/></radialGradient><linearGradient id="aigrd1" x1="23.124" x2="26.479" y1="43.165" y2="43.165" gradientUnits="userSpaceOnUse"><stop id="stop19415" offset=".006" style="stop-color:#686868"/><stop id="stop19417" offset=".03" style="stop-color:#777"/><stop id="stop19419" offset=".084" style="stop-color:#929292"/><stop id="stop19421" offset=".142" style="stop-color:#a7a7a7"/><stop id="stop19423" offset=".207" style="stop-color:#b6b6b6"/><stop id="stop19425" offset=".285" style="stop-color:#bebebe"/><stop id="stop19427" offset=".405" style="stop-color:#c1c1c1"/><stop id="stop19429" offset=".496" style="stop-color:#bcbcbc"/><stop id="stop19431" offset=".606" style="stop-color:#adadad"/><stop id="stop19433" offset=".725" style="stop-color:#959595"/><stop id="stop19435" offset=".85" style="stop-color:#747474"/><stop id="stop19437" offset=".979" style="stop-color:#494949"/><stop id="stop19439" offset="1" style="stop-color:#414141"/></linearGradient><linearGradient id="linearGradient19894" x1="18.995" x2="30.17" y1="37.227" y2="37.227" gradientUnits="userSpaceOnUse"><stop style="stop-color:#a3a349" id="stop19896" offset=".006"/><stop style="stop-color:#acac54" id="stop19898" offset=".021"/><stop style="stop-color:#c1c172" id="stop19900" offset=".066"/><stop style="stop-color:#d4d68e" id="stop19902" offset=".115"/><stop style="stop-color:#e2e4a6" id="stop19904" offset=".168"/><stop style="stop-color:#edf0b8" id="stop19906" offset=".227"/><stop style="stop-color:#f3f6c3" id="stop19908" offset=".296"/><stop style="stop-color:#f5f8c7" id="stop19910" offset=".405"/><stop style="stop-color:#eef0be" id="stop19912" offset=".524"/><stop style="stop-color:#dbdda9" id="stop19914" offset=".667"/><stop style="stop-color:#bebd88" id="stop19916" offset=".821"/><stop style="stop-color:#989564" id="stop19918" offset=".983"/><stop style="stop-color:#949160" id="stop19920" offset="1"/></linearGradient><linearGradient id="linearGradient20109" x1="23.124" x2="26.479" y1="43.165" y2="43.165" gradientTransform="matrix(1.639127,0,0,1.639127,-15.97035,-29.79355)" gradientUnits="userSpaceOnUse" xlink:href="#aigrd1"/><radialGradient id="radialGradient20216" cx="14.772" cy="74.21" r="7.829" fx="14.772" fy="74.21" gradientTransform="scale(1.764278,0.566804)" gradientUnits="userSpaceOnUse" xlink:href="#linearGradient20210"/><linearGradient id="linearGradient7708" x1="16.999" x2="32.097" y1="10.061" y2="36.726" gradientTransform="matrix(1.140494,0.000000,0.000000,0.926002,0.272330,-3.247170)" gradientUnits="userSpaceOnUse" xlink:href="#linearGradient6339"/><radialGradient id="radialGradient7720" cx="68.138" cy="29.869" r="33.934" fx="68.138" fy="29.869" gradientTransform="matrix(0.551290,1.265592e-16,-1.355720e-16,0.766034,-10.48701,3.514312)" gradientUnits="userSpaceOnUse" xlink:href="#aigrd7"/><linearGradient id="linearGradient3181" x1="37.94" x2="-5.252" y1="16.652" y2="3.856" gradientTransform="matrix(0.894129,0.000000,0.000000,0.985230,1.515981,2.449800e-2)" gradientUnits="userSpaceOnUse" xlink:href="#linearGradient3175"/><linearGradient id="linearGradient1700" x1="30.62" x2="32.166" y1="10.314" y2="18.163" gradientTransform="matrix(-0.6293,0,0,1.589068,50.68808,3.804378)" gradientUnits="userSpaceOnUse" xlink:href="#linearGradient20393"/><linearGradient id="linearGradient1702" x1="30.62" x2="32.166" y1="10.314" y2="18.163" gradientTransform="matrix(0.6293,0,0,1.589068,1.411612,3.929378)" gradientUnits="userSpaceOnUse" xlink:href="#linearGradient20393"/><linearGradient id="linearGradient1704" x1="14.637" x2="9.365" y1="31.504" y2="32.251" gradientTransform="matrix(1.985083,0,0,0.503757,1.786612,4.554378)" gradientUnits="userSpaceOnUse" xlink:href="#linearGradient20428"/><linearGradient id="linearGradient1725" x1="-22.874" x2="-4.391" y1="38.676" y2="38.676" gradientTransform="scale(1.026450,0.974232)" gradientUnits="userSpaceOnUse" xlink:href="#linearGradient19894"/><linearGradient id="linearGradient1727" x1="-10.481" x2="-23.851" y1="39.034" y2="39.143" gradientTransform="scale(1.026450,0.974232)" gradientUnits="userSpaceOnUse" xlink:href="#linearGradient2399"/><linearGradient id="linearGradient1729" x1="-22.874" x2="-4.391" y1="38.676" y2="38.676" gradientTransform="scale(1.026450,0.974232)" gradientUnits="userSpaceOnUse" xlink:href="#linearGradient19894"/><linearGradient id="linearGradient1731" x1="-10.481" x2="-23.851" y1="39.034" y2="39.143" gradientTransform="scale(1.026450,0.974232)" gradientUnits="userSpaceOnUse" xlink:href="#linearGradient2399"/><linearGradient id="linearGradient2516" x1="17.88" x2="11.906" y1="55.363" y2="54.863" gradientTransform="matrix(1.603440,0.000000,0.000000,0.549396,0.614167,2.449800e-2)" gradientUnits="userSpaceOnUse" xlink:href="#linearGradient3311"/><linearGradient id="linearGradient2518" x1="-29.007" x2="-37.641" y1="-29.799" y2="-29.598" gradientTransform="matrix(-0.905728,-4.386156e-2,0.189510,-0.963437,0.614167,2.449800e-2)" gradientUnits="userSpaceOnUse" xlink:href="#linearGradient3265"/><linearGradient id="linearGradient2522" x1="-22.874" x2="-4.391" y1="38.676" y2="38.676" gradientTransform="matrix(0.618682,-0.132027,6.262726e-2,0.741184,31.12021,8.300410)" gradientUnits="userSpaceOnUse" xlink:href="#linearGradient19894"/><linearGradient id="linearGradient2524" x1="-10.481" x2="-23.851" y1="39.034" y2="39.143" gradientTransform="matrix(0.618682,-0.132027,6.262726e-2,0.741184,31.12021,8.300410)" gradientUnits="userSpaceOnUse" xlink:href="#linearGradient2399"/><linearGradient id="linearGradient2529" x1="-22.874" x2="-4.391" y1="38.676" y2="38.676" gradientTransform="matrix(0.566621,2.988977e-2,-0.118557,0.656541,36.18544,20.08311)" gradientUnits="userSpaceOnUse" xlink:href="#linearGradient19894"/><linearGradient id="linearGradient2531" x1="-10.481" x2="-23.851" y1="39.034" y2="39.143" gradientTransform="matrix(0.566621,2.988977e-2,-0.118557,0.656541,36.18544,20.08311)" gradientUnits="userSpaceOnUse" xlink:href="#linearGradient2399"/><linearGradient id="linearGradient3306" x1="24.613" x2="24.613" y1="31.146" y2="26.74" gradientTransform="scale(1.002656,0.997352)" gradientUnits="userSpaceOnUse" xlink:href="#linearGradient3300"/><linearGradient id="linearGradient3127" x1="17.88" x2="11.906" y1="55.363" y2="54.863" gradientTransform="matrix(1.60344,0,0,0.549396,0.614167,2.4498e-2)" gradientUnits="userSpaceOnUse" xlink:href="#linearGradient3311"/><linearGradient id="linearGradient3129" x1="-29.007" x2="-37.641" y1="-29.799" y2="-29.598" gradientTransform="matrix(-0.905728,-4.386156e-2,0.18951,-0.963437,0.614167,2.4498e-2)" gradientUnits="userSpaceOnUse" xlink:href="#linearGradient3265"/><radialGradient id="radialGradient3131" cx="68.138" cy="29.869" r="33.934" fx="68.138" fy="29.869" gradientTransform="matrix(0.55129,1.265592e-16,-1.35572e-16,0.766034,-10.48701,3.514312)" gradientUnits="userSpaceOnUse" xlink:href="#aigrd7"/><linearGradient id="linearGradient3133" x1="16.999" x2="32.097" y1="10.061" y2="36.726" gradientTransform="matrix(1.140494,0,0,0.926002,0.27233,-3.24717)" gradientUnits="userSpaceOnUse" xlink:href="#linearGradient6339"/><linearGradient id="linearGradient3135" x1="37.94" x2="-5.252" y1="16.652" y2="3.856" gradientTransform="matrix(0.894129,0,0,0.98523,1.515981,2.4498e-2)" gradientUnits="userSpaceOnUse" xlink:href="#linearGradient3175"/><linearGradient id="linearGradient3157" x1="17.88" x2="11.906" y1="55.363" y2="54.863" gradientTransform="matrix(1.60344,0,0,0.549396,0.614167,2.4498e-2)" gradientUnits="userSpaceOnUse" xlink:href="#linearGradient3311"/><linearGradient id="linearGradient3159" x1="-29.007" x2="-37.641" y1="-29.799" y2="-29.598" gradientTransform="matrix(-0.905728,-4.386156e-2,0.18951,-0.963437,0.614167,2.4498e-2)" gradientUnits="userSpaceOnUse" xlink:href="#linearGradient3265"/><radialGradient id="radialGradient3161" cx="68.138" cy="29.869" r="33.934" fx="68.138" fy="29.869" gradientTransform="matrix(0.55129,1.265592e-16,-1.35572e-16,0.766034,-10.48701,3.514312)" gradientUnits="userSpaceOnUse" xlink:href="#aigrd7"/><linearGradient id="linearGradient3163" x1="37.94" x2="-5.252" y1="16.652" y2="3.856" gradientTransform="matrix(0.894129,0,0,0.98523,1.515981,2.4498e-2)" gradientUnits="userSpaceOnUse" xlink:href="#linearGradient3175"/><linearGradient id="linearGradient3165" x1="30.62" x2="32.166" y1="10.314" y2="18.163" gradientTransform="matrix(-0.6293,0,0,1.589068,50.68808,3.804378)" gradientUnits="userSpaceOnUse" xlink:href="#linearGradient20393"/><linearGradient id="linearGradient3167" x1="30.62" x2="32.166" y1="10.314" y2="18.163" gradientTransform="matrix(0.6293,0,0,1.589068,1.411612,3.929378)" gradientUnits="userSpaceOnUse" xlink:href="#linearGradient20393"/><linearGradient id="linearGradient3169" x1="14.637" x2="9.365" y1="31.504" y2="32.251" gradientTransform="matrix(1.985083,0,0,0.503757,1.786612,4.554378)" gradientUnits="userSpaceOnUse" xlink:href="#linearGradient20428"/><linearGradient id="linearGradient3171" x1="16.999" x2="32.097" y1="10.061" y2="36.726" gradientTransform="matrix(1.140494,0,0,0.926002,0.27233,-3.24717)" gradientUnits="userSpaceOnUse" xlink:href="#linearGradient6339"/><linearGradient id="linearGradient3185" x1="24.613" x2="24.613" y1="31.146" y2="26.74" gradientTransform="scale(1.002656,0.997352)" gradientUnits="userSpaceOnUse" xlink:href="#linearGradient3300"/><linearGradient id="linearGradient3187" x1="-22.874" x2="-4.391" y1="38.676" y2="38.676" gradientTransform="matrix(0.566621,2.988977e-2,-0.118557,0.656541,36.18544,20.08311)" gradientUnits="userSpaceOnUse" xlink:href="#linearGradient19894"/><linearGradient id="linearGradient3189" x1="-10.481" x2="-23.851" y1="39.034" y2="39.143" gradientTransform="matrix(0.566621,2.988977e-2,-0.118557,0.656541,36.18544,20.08311)" gradientUnits="userSpaceOnUse" xlink:href="#linearGradient2399"/><linearGradient id="linearGradient3191" x1="-22.874" x2="-4.391" y1="38.676" y2="38.676" gradientTransform="scale(1.02645,0.974232)" gradientUnits="userSpaceOnUse" xlink:href="#linearGradient19894"/><linearGradient id="linearGradient3193" x1="-10.481" x2="-23.851" y1="39.034" y2="39.143" gradientTransform="scale(1.02645,0.974232)" gradientUnits="userSpaceOnUse" xlink:href="#linearGradient2399"/><linearGradient id="linearGradient3195" x1="-22.874" x2="-4.391" y1="38.676" y2="38.676" gradientTransform="scale(1.02645,0.974232)" gradientUnits="userSpaceOnUse" xlink:href="#linearGradient19894"/><linearGradient id="linearGradient3197" x1="-10.481" x2="-23.851" y1="39.034" y2="39.143" gradientTransform="scale(1.02645,0.974232)" gradientUnits="userSpaceOnUse" xlink:href="#linearGradient2399"/><linearGradient id="linearGradient3199" x1="-22.874" x2="-4.391" y1="38.676" y2="38.676" gradientTransform="matrix(0.618682,-0.132027,6.262726e-2,0.741184,31.12021,8.30041)" gradientUnits="userSpaceOnUse" xlink:href="#linearGradient19894"/><linearGradient id="linearGradient3201" x1="-10.481" x2="-23.851" y1="39.034" y2="39.143" gradientTransform="matrix(0.618682,-0.132027,6.262726e-2,0.741184,31.12021,8.30041)" gradientUnits="userSpaceOnUse" xlink:href="#linearGradient2399"/><linearGradient id="linearGradient4100" x1="23.124" x2="26.479" y1="43.165" y2="43.165" gradientTransform="matrix(1.639127,0,0,1.639127,-15.97035,-29.79355)" gradientUnits="userSpaceOnUse" xlink:href="#aigrd1"/><linearGradient id="linearGradient4102" x1="24.613" x2="24.613" y1="31.146" y2="26.74" gradientTransform="scale(1.002656,0.997352)" gradientUnits="userSpaceOnUse" xlink:href="#linearGradient3300"/><linearGradient id="linearGradient4104" x1="-22.874" x2="-4.391" y1="38.676" y2="38.676" gradientTransform="matrix(0.566621,2.988977e-2,-0.118557,0.656541,36.18544,20.08311)" gradientUnits="userSpaceOnUse" xlink:href="#linearGradient19894"/><linearGradient id="linearGradient4106" x1="-10.481" x2="-23.851" y1="39.034" y2="39.143" gradientTransform="matrix(0.566621,2.988977e-2,-0.118557,0.656541,36.18544,20.08311)" gradientUnits="userSpaceOnUse" xlink:href="#linearGradient2399"/><linearGradient id="linearGradient4108" x1="-22.874" x2="-4.391" y1="38.676" y2="38.676" gradientTransform="scale(1.02645,0.974232)" gradientUnits="userSpaceOnUse" xlink:href="#linearGradient19894"/><linearGradient id="linearGradient4110" x1="-10.481" x2="-23.851" y1="39.034" y2="39.143" gradientTransform="scale(1.02645,0.974232)" gradientUnits="userSpaceOnUse" xlink:href="#linearGradient2399"/><linearGradient id="linearGradient4112" x1="-22.874" x2="-4.391" y1="38.676" y2="38.676" gradientTransform="scale(1.02645,0.974232)" gradientUnits="userSpaceOnUse" xlink:href="#linearGradient19894"/><linearGradient id="linearGradient4114" x1="-10.481" x2="-23.851" y1="39.034" y2="39.143" gradientTransform="scale(1.02645,0.974232)" gradientUnits="userSpaceOnUse" xlink:href="#linearGradient2399"/><linearGradient id="linearGradient4116" x1="-22.874" x2="-4.391" y1="38.676" y2="38.676" gradientTransform="matrix(0.618682,-0.132027,6.262726e-2,0.741184,31.12021,8.30041)" gradientUnits="userSpaceOnUse" xlink:href="#linearGradient19894"/><linearGradient id="linearGradient4118" x1="-10.481" x2="-23.851" y1="39.034" y2="39.143" gradientTransform="matrix(0.618682,-0.132027,6.262726e-2,0.741184,31.12021,8.30041)" gradientUnits="userSpaceOnUse" xlink:href="#linearGradient2399"/><linearGradient id="linearGradient4120" x1="17.88" x2="11.906" y1="55.363" y2="54.863" gradientTransform="matrix(1.60344,0,0,0.549396,0.614167,2.4498e-2)" gradientUnits="userSpaceOnUse" xlink:href="#linearGradient3311"/><linearGradient id="linearGradient4122" x1="-29.007" x2="-37.641" y1="-29.799" y2="-29.598" gradientTransform="matrix(-0.905728,-4.386156e-2,0.18951,-0.963437,0.614167,2.4498e-2)" gradientUnits="userSpaceOnUse" xlink:href="#linearGradient3265"/><radialGradient id="radialGradient4124" cx="68.138" cy="29.869" r="33.934" fx="68.138" fy="29.869" gradientTransform="matrix(0.55129,1.265592e-16,-1.35572e-16,0.766034,-10.48701,3.514312)" gradientUnits="userSpaceOnUse" xlink:href="#aigrd7"/><linearGradient id="linearGradient4126" x1="37.94" x2="-5.252" y1="16.652" y2="3.856" gradientTransform="matrix(0.894129,0,0,0.98523,1.515981,2.4498e-2)" gradientUnits="userSpaceOnUse" xlink:href="#linearGradient3175"/><linearGradient id="linearGradient4128" x1="30.62" x2="32.166" y1="10.314" y2="18.163" gradientTransform="matrix(-0.6293,0,0,1.589068,50.68808,3.804378)" gradientUnits="userSpaceOnUse" xlink:href="#linearGradient20393"/><linearGradient id="linearGradient4130" x1="30.62" x2="32.166" y1="10.314" y2="18.163" gradientTransform="matrix(0.6293,0,0,1.589068,1.411612,3.929378)" gradientUnits="userSpaceOnUse" xlink:href="#linearGradient20393"/><linearGradient id="linearGradient4132" x1="14.637" x2="9.365" y1="31.504" y2="32.251" gradientTransform="matrix(1.985083,0,0,0.503757,1.786612,4.554378)" gradientUnits="userSpaceOnUse" xlink:href="#linearGradient20428"/><linearGradient id="linearGradient4134" x1="16.999" x2="32.097" y1="10.061" y2="36.726" gradientTransform="matrix(1.140494,0,0,0.926002,0.27233,-3.24717)" gradientUnits="userSpaceOnUse" xlink:href="#linearGradient6339"/></defs><metadata id="metadata4"/><g id="layer1"><path id="path20208" d="M 39.875 42.0625 A 13.8125 4.4375 0 1 1 12.25,42.0625 A 13.8125 4.4375 0 1 1 39.875 42.0625 z" transform="matrix(1.197183,0,0,1.098591,-6.201582,-3.209507)" style="color:#000;fill:url(#radialGradient20216);fill-opacity:1;fill-rule:nonzero;stroke:none;stroke-width:2;stroke-linecap:round;stroke-linejoin:round;marker:none;marker-start:none;marker-mid:none;marker-end:none;stroke-miterlimit:4;stroke-dashoffset:0;stroke-opacity:1;visibility:visible;display:inline;overflow:visible;opacity:.8"/><g id="g4076" transform="translate(0,1)"><path id="path19509" d="M 21.893504,38.885945 L 21.893504,40.36116 C 21.893504,41.836375 23.204807,43.147679 24.680022,43.147679 C 26.155237,43.147679 27.466539,41.836375 27.466539,40.36116 L 27.466539,38.885945 L 21.893504,38.885945 z" transform="matrix(1.075823,0,0,0.937493,-2.551335,3.047213)" style="fill:url(#linearGradient4100);fill-rule:nonzero;stroke:#565656;stroke-miterlimit:4;stroke-opacity:1"/><g id="g3173" transform="matrix(0.989073,0,0,0.993556,-0.408739,7.920479e-3)"><path id="path3209" d="M 24.511725,27.668867 C 21.208844,27.660897 17.463275,28.632054 19.492913,30.467931 C 18.98969,30.670934 18.270371,31.124313 18.355167,32.185222 C 18.401983,32.739286 18.989243,33.079394 19.79236,33.32911 C 18.881908,33.967722 18.302581,34.642557 18.355167,35.264921 C 18.401438,35.812525 18.976334,36.187531 19.76303,36.43814 C 18.875519,37.069403 18.303301,37.760121 18.355167,38.373951 C 18.434436,39.312088 20.457743,40.362928 24.838928,40.2419 C 27.993329,40.155914 30.776913,39.590514 30.996599,38.373951 C 31.082862,37.896248 30.691907,37.450531 30.087355,37.05408 C 30.539926,36.597918 30.85698,36.135242 30.820616,35.704878 C 30.774128,35.154694 30.205993,34.781923 29.412754,34.53166 C 30.300265,33.900397 30.872482,33.209679 30.820616,32.595849 C 30.774128,32.045664 30.205993,31.702225 29.412754,31.45196 C 30.310848,30.817288 30.872816,30.133928 30.820616,29.516149 C 30.762593,28.829446 27.61599,27.676358 24.511725,27.668867 z" style="color:#000;fill:#aeae57;fill-opacity:1;fill-rule:nonzero;stroke:url(#linearGradient4102);stroke-width:2.01752925;stroke-linecap:round;stroke-linejoin:round;marker:none;marker-start:none;marker-mid:none;marker-end:none;stroke-miterlimit:4;stroke-dashoffset:0;stroke-opacity:1;visibility:visible;display:inline;overflow:visible"/><path id="path3183" d="M 30.920208,38.329767 C 30.700522,39.546331 27.591422,40.232861 22.615132,39.983673 C 19.463507,39.825856 19.283163,38.944055 19.502848,37.727491 C 19.722534,36.510926 22.458318,35.65848 25.609509,35.824708 C 28.7607,35.990936 31.139893,37.113203 30.920208,38.329767 z" style="color:#000;fill:url(#linearGradient4104);fill-opacity:1;fill-rule:nonzero;stroke:url(#linearGradient4106);stroke-width:.08906282;stroke-linecap:round;stroke-linejoin:round;marker:none;marker-start:none;marker-mid:none;marker-end:none;stroke-miterlimit:4;stroke-dashoffset:0;stroke-opacity:1;visibility:visible;display:inline;overflow:visible"/><path style="color:#000;fill:url(#linearGradient4108);fill-opacity:1;fill-rule:nonzero;stroke:url(#linearGradient4110);stroke-width:.13035245;stroke-linecap:round;stroke-linejoin:round;marker:none;marker-start:none;marker-mid:none;marker-end:none;stroke-miterlimit:4;stroke-dashoffset:0;stroke-opacity:1;visibility:visible;display:inline;overflow:visible" id="path1603" d="M -3.5355339 27.228739 A 10.341436 3.2703688 0 1 1 -24.218407,27.228739 A 10.341436 3.2703688 0 1 1 -3.5355339 27.228739 z" transform="matrix(0.60274,-0.128625,6.428372e-2,0.760788,31.12021,14.49141)"/><path id="path2364" d="M -3.5355339 27.228739 A 10.341436 3.2703688 0 1 1 -24.218407,27.228739 A 10.341436 3.2703688 0 1 1 -3.5355339 27.228739 z" transform="matrix(0.60274,-0.128625,6.428372e-2,0.760788,31.12021,11.39591)" style="color:#000;fill:url(#linearGradient4112);fill-opacity:1;fill-rule:nonzero;stroke:url(#linearGradient4114);stroke-width:.13035245;stroke-linecap:round;stroke-linejoin:round;marker:none;marker-start:none;marker-mid:none;marker-end:none;stroke-miterlimit:4;stroke-dashoffset:0;stroke-opacity:1;visibility:visible;display:inline;overflow:visible"/><path id="path2366" d="M 30.698087,29.636386 C 30.698087,31.014688 28.157326,32.55444 24.716601,33.288693 C 21.275876,34.022945 18.38922,33.50421 18.273172,32.130802 C 18.157124,30.757395 20.509679,29.155466 23.952388,28.968827 C 27.422379,28.780711 30.698087,28.924901 30.698087,29.636386 z" style="color:#000;fill:url(#linearGradient4116);fill-opacity:1;fill-rule:nonzero;stroke:url(#linearGradient4118);stroke-width:.08906286;stroke-linecap:round;stroke-linejoin:round;marker:none;marker-start:none;marker-mid:none;marker-end:none;stroke-miterlimit:4;stroke-dashoffset:0;stroke-opacity:1;visibility:visible;display:inline;overflow:visible"/><path id="path20372" d="M 31 22.375 A 3.25 3.25 0 1 1 24.5,22.375 A 3.25 3.25 0 1 1 31 22.375 z" transform="matrix(0.335464,0,0,0.335464,11.74678,27.2261)" style="color:#000;fill:#fff;fill-opacity:1;fill-rule:nonzero;stroke:none;stroke-width:2;stroke-linecap:butt;stroke-linejoin:round;marker:none;marker-start:none;marker-mid:none;marker-end:none;stroke-miterlimit:4;stroke-dashoffset:0;stroke-opacity:1;visibility:visible;display:inline;overflow:visible"/><path id="path3241" d="M 19.342183,33.378865 C 22.736592,33.883533 26.320992,33.346192 29.214315,31.470807 C 30.025582,30.944962 30.147604,30.343945 30.520921,29.873844 C 29.09679,31.000705 25.494982,34.035625 19.342183,33.378865 z" style="fill:#000;fill-opacity:.23391807;fill-rule:evenodd;stroke:none;stroke-width:1px;stroke-linecap:butt;stroke-linejoin:miter;stroke-opacity:1"/><path style="color:#000;fill:#fff;fill-opacity:1;fill-rule:nonzero;stroke:none;stroke-width:2;stroke-linecap:butt;stroke-linejoin:round;marker:none;marker-start:none;marker-mid:none;marker-end:none;stroke-miterlimit:4;stroke-dashoffset:0;stroke-opacity:1;visibility:visible;display:inline;overflow:visible" id="path2435" d="M 31 22.375 A 3.25 3.25 0 1 1 24.5,22.375 A 3.25 3.25 0 1 1 31 22.375 z" transform="matrix(0.335464,0,0,0.335464,11.74678,30.23376)"/><path id="path3237" d="M 19.466621,39.517838 C 22.86103,40.022506 26.44543,39.485165 29.338753,37.60978 C 30.15002,37.083935 30.272043,36.482919 30.645359,36.012817 C 29.221228,37.139678 25.61942,40.174598 19.466621,39.517838 z" style="fill:#000;fill-opacity:.23391807;fill-rule:evenodd;stroke:none;stroke-width:1px;stroke-linecap:butt;stroke-linejoin:miter;stroke-opacity:1"/><path style="fill:#000;fill-opacity:.23391807;fill-rule:evenodd;stroke:none;stroke-width:1px;stroke-linecap:butt;stroke-linejoin:miter;stroke-opacity:1" id="path3239" d="M 19.487361,36.406872 C 22.88177,36.91154 26.46617,36.374199 29.359492,34.498814 C 30.17076,33.972969 30.292782,33.371953 30.666099,32.901851 C 29.241968,34.028712 25.64016,37.063632 19.487361,36.406872 z"/></g><g id="g3146" transform="translate(-0.988797,0)"><g id="g3141"><path id="path3243" d="M 18.87103,29.628128 C 18.87103,28.836695 20.445135,27.889988 24.419234,27.942972 C 28.101154,27.992059 30.526608,28.83866 30.526608,30.105404 C 30.526608,31.345281 27.307242,32.174416 23.874677,32.008188 C 20.442113,31.84196 18.87103,30.868005 18.87103,29.628128 z" transform="matrix(0.954439,0,0,0.989869,1.433222,0.639881)" style="color:#000;fill:url(#linearGradient4120);fill-opacity:1;fill-rule:nonzero;stroke:url(#linearGradient4122);stroke-width:.09083303;stroke-linecap:round;stroke-linejoin:round;marker:none;marker-start:none;marker-mid:none;marker-end:none;stroke-miterlimit:4;stroke-dashoffset:0;stroke-opacity:1;visibility:visible;display:inline;overflow:visible"/><path id="path6305" d="M 24.680021,0.8622936 C 16.858005,0.8622936 10.506261,6.8372628 10.506261,14.195288 C 10.506261,21.737851 16.247826,22.573217 16.247826,25.352995 C 16.247826,28.619061 19.614103,32.322687 25.149309,32.188995 C 31.035159,32.046835 33.464182,28.825655 33.464182,25.352995 C 33.464182,22.384064 38.853781,22.304889 38.853781,14.195288 C 38.853781,6.8372628 32.502038,0.8622936 24.680021,0.8622936 z" transform="matrix(0.954439,0,0,0.989869,1.433222,0.639881)" style="color:#000;fill:url(#radialGradient4124);fill-opacity:1;fill-rule:nonzero;stroke:#616471;stroke-width:1.01595449;stroke-linecap:round;stroke-linejoin:round;marker:none;marker-start:none;marker-mid:none;marker-end:none;stroke-miterlimit:4;stroke-dashoffset:0;stroke-opacity:1;visibility:visible;display:inline;overflow:visible"/><path style="color:#000;fill:none;fill-opacity:1;fill-rule:nonzero;stroke:url(#linearGradient4126);stroke-width:.94685698;stroke-linecap:round;stroke-linejoin:round;marker:none;marker-start:none;marker-mid:none;marker-end:none;stroke-miterlimit:4;stroke-dashoffset:0;stroke-opacity:1;visibility:visible;display:inline;overflow:visible" id="path2429" d="M 24.680021,1.9277146 C 17.389999,1.9277146 11.470252,7.4963123 11.470252,14.353901 C 11.470252,21.383476 16.82132,22.162027 16.82132,24.752746 C 16.82132,27.79668 19.958648,31.248413 25.117392,31.123813 C 30.602931,30.991321 32.866751,27.989222 32.866751,24.752746 C 32.866751,21.98574 37.889791,21.911948 37.889791,14.353901 C 37.889791,7.4963123 31.970044,1.9277146 24.680021,1.9277146 z" transform="matrix(0.954439,0,0,0.989869,1.433222,0.639881)"/></g><g id="g1695" transform="matrix(0.9375,0,0,0.926938,0.569221,0.25176)"><path style="fill:url(#linearGradient4128);fill-opacity:1;fill-rule:nonzero;stroke:none;stroke-miterlimit:4" id="path1691" d="M 31.947292,19.22274 C 32.260034,19.326988 32.468529,19.63973 32.364281,19.952471 L 28.507134,31.523913 C 28.402887,31.836655 28.090145,32.045149 27.777403,31.940902 C 27.464662,31.836655 27.256168,31.523913 27.360415,31.211172 L 31.217562,19.63973 C 31.321809,19.326988 31.634551,19.118493 31.947292,19.22274 z"/><path id="path19612" d="M 20.152404,19.34774 C 19.839662,19.451988 19.631167,19.76473 19.735415,20.077471 L 23.592562,31.648913 C 23.696809,31.961655 24.009551,32.170149 24.322293,32.065902 C 24.635034,31.961655 24.843528,31.648913 24.739281,31.336172 L 20.882134,19.76473 C 20.777887,19.451988 20.465145,19.243493 20.152404,19.34774 z" style="fill:url(#linearGradient4130);fill-opacity:1;fill-rule:nonzero;stroke:none;stroke-miterlimit:4"/><path style="fill:#fff;fill-opacity:1;fill-rule:nonzero;stroke:url(#linearGradient4132);stroke-width:.21454535;stroke-linecap:round;stroke-linejoin:round;stroke-miterlimit:4;stroke-opacity:1" id="path19614" d="M 20.255362,19.273128 C 20.009452,19.315194 19.816806,19.507772 19.774653,19.753667 C 19.732499,19.999562 19.850004,20.245309 20.067862,20.366878 C 20.067862,20.366878 21.910084,21.447747 24.317862,21.991878 C 26.72564,22.536009 29.806763,22.571305 32.130362,20.304378 C 32.305608,20.165345 32.386854,19.938963 32.340007,19.720224 C 32.29316,19.501485 32.126325,19.328233 31.909509,19.273168 C 31.692693,19.218103 31.463406,19.290751 31.317862,19.460628 C 29.367326,21.36359 26.773024,21.36522 24.567862,20.866878 C 22.3627,20.368536 20.661612,19.366878 20.661612,19.366878 C 20.542178,19.287089 20.397682,19.253744 20.255362,19.273128 z"/></g><path style="opacity:.5977654;color:#000;fill:url(#linearGradient4134);fill-opacity:1;fill-rule:nonzero;stroke:none;stroke-width:.98750001;stroke-linecap:round;stroke-linejoin:round;marker:none;marker-start:none;marker-mid:none;marker-end:none;stroke-miterlimit:4;stroke-dashoffset:0;stroke-opacity:1;visibility:visible;display:inline;overflow:visible" id="path6334" d="M 25.001158,3.5644322 C 18.737608,3.5644322 13.655359,7.5900329 13.655359,12.547843 C 13.655359,14.527956 14.632918,16.261758 16.006008,17.747035 C 17.558672,18.378895 19.249827,18.832941 21.114752,18.832941 C 27.378302,18.832941 32.460549,14.807341 32.460551,9.849528 C 32.460551,7.857476 31.466744,6.1074629 30.07856,4.6174331 C 28.533139,3.9930601 26.854241,3.5644321 25.001158,3.5644322 z" transform="matrix(0.954439,0,0,0.989869,1.433222,0.639881)"/></g></g></g></svg>